<svg width="415" height="608" viewBox="0 0 415 608" fill="none" xmlns="http://www.w3.org/2000/svg">
<path d="M426.413 420.456C426.413 420.456 391.405 415.651 372.509 455.194C411.965 462.639 426.413 420.456 426.413 420.456Z" fill="#A8B672" stroke="black" stroke-width="2" stroke-linecap="round" stroke-linejoin="round"/>
<path d="M353.531 478.735C353.458 478.734 353.387 478.712 353.326 478.672C353.245 478.617 353.189 478.532 353.169 478.436C353.15 478.34 353.169 478.24 353.223 478.158C353.286 478.057 359.969 467.921 372.123 455.764C383.336 444.54 401.642 429.249 425.162 420.11C425.208 420.088 425.258 420.076 425.309 420.074C425.36 420.073 425.411 420.081 425.458 420.1C425.506 420.119 425.549 420.148 425.585 420.184C425.621 420.221 425.649 420.264 425.667 420.312C425.686 420.36 425.694 420.411 425.692 420.462C425.69 420.513 425.677 420.563 425.655 420.609C425.633 420.655 425.601 420.696 425.562 420.729C425.523 420.763 425.478 420.787 425.429 420.802C402.036 429.893 383.841 445.11 372.661 456.277C360.556 468.379 353.909 478.467 353.843 478.567C353.809 478.619 353.762 478.661 353.708 478.691C353.653 478.72 353.593 478.735 353.531 478.735V478.735Z" fill="#1A1A1A"/>
<path d="M370.905 468.174C370.905 468.174 406.217 418.036 458.629 452.089C416.937 465.442 395.876 483.991 395.876 483.991L370.905 468.174Z" fill="#A8B672" stroke="black" stroke-width="2" stroke-linecap="round" stroke-linejoin="round"/>
<path d="M377.507 494.455C377.507 494.455 400.335 465.323 429.335 472.518C421.166 490.364 404.643 494.455 404.643 494.455H377.507Z" fill="#1C0311"/>
<path d="M404.643 494.641H377.507C377.472 494.641 377.438 494.631 377.409 494.612C377.379 494.594 377.356 494.567 377.34 494.536C377.325 494.504 377.319 494.469 377.323 494.434C377.327 494.4 377.34 494.367 377.362 494.339C381.744 489.105 386.817 484.494 392.441 480.633C400.982 474.789 414.349 468.606 429.38 472.336C429.406 472.344 429.43 472.357 429.451 472.374C429.472 472.391 429.49 472.412 429.503 472.436C429.514 472.461 429.521 472.489 429.521 472.517C429.521 472.544 429.514 472.572 429.503 472.597C421.378 490.315 404.851 494.596 404.687 494.637L404.643 494.641ZM377.908 494.269H404.643C405.319 494.094 421.148 489.738 429.098 472.645C414.278 469.06 401.126 475.165 392.686 480.939C387.192 484.708 382.221 489.191 377.9 494.269H377.908Z" fill="#1A1A1A"/>
<path d="M366.167 478.895C366.112 478.894 366.058 478.882 366.008 478.858C365.959 478.834 365.915 478.8 365.881 478.757C365.819 478.681 365.79 478.583 365.8 478.486C365.81 478.388 365.857 478.298 365.933 478.236C366.055 478.135 378.32 468.137 395.79 459.925C406.061 455.086 416.094 451.818 425.615 450.176C437.534 448.125 448.677 448.646 458.736 451.732C458.786 451.744 458.832 451.765 458.873 451.796C458.913 451.826 458.947 451.865 458.973 451.909C458.998 451.953 459.014 452.002 459.02 452.052C459.025 452.103 459.021 452.154 459.006 452.202C458.991 452.251 458.967 452.296 458.934 452.335C458.901 452.374 458.861 452.405 458.815 452.428C458.77 452.45 458.72 452.463 458.67 452.466C458.619 452.469 458.568 452.461 458.521 452.443C435.978 445.53 412.147 453.057 396.14 460.591C378.747 468.781 366.538 478.712 366.434 478.809C366.36 478.872 366.264 478.902 366.167 478.895V478.895Z" fill="#1A1A1A"/>
<path d="M397.395 489.697C397.309 489.698 397.225 489.669 397.158 489.615C397.092 489.561 397.046 489.485 397.028 489.401C397.01 489.317 397.023 489.229 397.062 489.153C397.102 489.077 397.167 489.016 397.246 488.983C397.521 488.864 424.579 477.104 429.064 472.265C429.133 472.201 429.224 472.165 429.318 472.165C429.412 472.165 429.502 472.2 429.571 472.265C429.64 472.329 429.682 472.417 429.688 472.511C429.695 472.605 429.666 472.698 429.606 472.771C425.017 477.726 398.661 489.18 397.543 489.668C397.496 489.687 397.445 489.697 397.395 489.697Z" fill="white"/>
<path d="M51.9609 459.099C51.9609 459.099 10.429 426.341 28.23 381.434C67.5674 410.793 63.8319 456.839 63.8319 456.839L51.9609 459.099Z" fill="#A8B672" stroke="black" stroke-width="2" stroke-linecap="round" stroke-linejoin="round"/>
<path d="M54.5491 447.235C54.464 447.236 54.3814 447.207 54.3151 447.153C44.75 439.362 38.0662 421.912 34.1451 408.641C31.5279 399.728 29.4314 390.67 27.8661 381.512C27.8509 381.413 27.8753 381.312 27.9342 381.232C27.993 381.151 28.0814 381.097 28.1799 381.082C28.2784 381.067 28.3789 381.091 28.4593 381.15C28.5397 381.209 28.5935 381.298 28.6088 381.396C28.6867 381.899 36.7406 431.888 54.7941 446.591C54.8323 446.622 54.864 446.66 54.8874 446.703C54.9109 446.746 54.9256 446.793 54.9308 446.842C54.936 446.891 54.9315 446.94 54.9176 446.987C54.9037 447.034 54.8807 447.078 54.8498 447.116C54.8119 447.158 54.7651 447.19 54.713 447.21C54.661 447.231 54.6049 447.24 54.5491 447.235Z" fill="#1A1A1A"/>
<path d="M4.82947 479.725C4.82947 479.725 19.452 447.131 58.6223 443.409C115.516 438.004 117.239 490.952 117.239 490.952L4.82947 479.725Z" fill="#1C0311" stroke="#1A1A1A" stroke-linecap="round" stroke-linejoin="round"/>
<path d="M68.4288 455.116C68.4288 455.116 45.4962 433.816 58.2547 379.707C92.8319 395.341 79.6241 452.09 79.6241 452.09L68.4288 455.116Z" fill="#A8B672" stroke="black" stroke-width="2" stroke-linecap="round" stroke-linejoin="round"/>
<path d="M107.477 350.065C107.477 350.065 63.5461 403.876 77.6153 450.649L95.4163 453.389C95.4163 453.389 124.554 400.623 107.477 350.065Z" fill="#A8B672" stroke="black" stroke-width="2" stroke-linecap="round" stroke-linejoin="round"/>
<path d="M78.6662 452.8C78.5759 452.8 78.4888 452.767 78.4211 452.707C72.1607 447.124 66.7988 433.164 62.4915 411.157C59.2871 394.808 57.8983 379.889 57.8835 379.744C57.8789 379.695 57.884 379.645 57.8985 379.598C57.9131 379.551 57.9367 379.508 57.9681 379.47C57.9995 379.432 58.0381 379.401 58.0815 379.379C58.125 379.356 58.1725 379.342 58.2214 379.338C58.3187 379.329 58.4155 379.36 58.4905 379.423C58.5656 379.485 58.613 379.575 58.6224 379.673C58.6781 380.268 64.2442 439.117 78.9149 452.149C78.9882 452.215 79.0325 452.307 79.038 452.405C79.0436 452.504 79.01 452.6 78.9447 452.674C78.9099 452.713 78.867 452.745 78.819 452.767C78.771 452.789 78.7189 452.8 78.6662 452.8Z" fill="#1A1A1A"/>
<path d="M82.4944 452.034C82.4318 452.034 82.3702 452.017 82.3162 451.985C82.2735 451.961 82.2359 451.93 82.2055 451.891C82.1752 451.853 82.1526 451.809 82.1391 451.762C82.1257 451.715 82.1216 451.666 82.1272 451.617C82.1327 451.569 82.1477 451.522 82.1714 451.479C96.8013 425.422 107.005 350.764 107.109 350.012C107.122 349.914 107.174 349.824 107.253 349.764C107.332 349.704 107.432 349.677 107.531 349.69C107.629 349.704 107.718 349.756 107.778 349.835C107.839 349.914 107.865 350.014 107.852 350.113C107.748 350.857 97.5254 425.656 82.8286 451.844C82.7955 451.903 82.7468 451.952 82.6879 451.985C82.629 452.019 82.5621 452.035 82.4944 452.034Z" fill="#1A1A1A"/>
<path d="M-200.602 494.712C-200.602 494.712 -135.659 445.966 -71.3835 445.966C-7.10834 445.966 29.1063 473.75 29.1063 473.75C29.1063 473.75 42.8748 447.771 77.6153 447.12C112.356 446.469 143.365 471.565 142.225 494.712H-200.602Z" fill="white"/>
<path d="M142.217 495.084H-200.602C-200.68 495.083 -200.755 495.058 -200.818 495.012C-200.881 494.966 -200.927 494.901 -200.951 494.827C-200.975 494.753 -200.976 494.673 -200.953 494.599C-200.929 494.525 -200.883 494.46 -200.821 494.414C-200.662 494.291 -184.283 482.066 -160.262 470.006C-138.083 458.872 -104.665 445.594 -71.3984 445.594C-38.132 445.594 -12.5408 453.165 3.08429 459.512C18.2081 465.661 27.1643 471.885 28.9763 473.203C29.8415 471.714 33.3913 466.045 40.0861 460.39C47.2377 454.349 59.5544 447.079 77.5893 446.748C97.3286 446.375 117.662 454.513 130.662 467.966C138.779 476.364 143.008 485.867 142.57 494.734C142.565 494.825 142.526 494.912 142.46 494.976C142.395 495.041 142.309 495.079 142.217 495.084ZM-199.462 494.339H141.861C142.162 485.778 138.014 476.613 130.146 468.479C117.283 455.175 97.1578 447.124 77.6227 447.492C59.7994 447.82 47.6239 454.997 40.5652 460.96C32.9197 467.415 29.4553 473.858 29.4256 473.925C29.4004 473.973 29.3651 474.015 29.3221 474.048C29.2791 474.081 29.2296 474.104 29.1768 474.115C29.124 474.126 29.0694 474.126 29.0168 474.113C28.9642 474.101 28.9149 474.078 28.8723 474.044C28.7795 473.977 19.6377 467.039 2.77981 460.193C-12.7784 453.865 -38.2769 446.338 -71.3947 446.338C-104.513 446.338 -137.824 459.572 -159.932 470.672C-180.677 481.091 -195.701 491.622 -199.462 494.339V494.339Z" fill="#1A1A1A"/>
<path d="M264.671 494.712C264.671 494.712 291.844 459.099 340.791 459.099C389.738 459.099 409.7 494.712 409.7 494.712H264.671Z" fill="#FFC24C" stroke="black" stroke-width="2" stroke-linecap="round" stroke-linejoin="round"/>
<path d="M281.373 231.754C281.373 231.754 247.876 228.865 236.677 208.477C223.309 184.133 221.453 165.576 221.453 165.576C221.453 165.576 208.245 165.29 207.384 152.049C207.384 152.049 196.188 151.476 195.327 148.598C194.465 145.721 219.158 139.962 225.185 144.28C231.211 148.598 233.224 155.217 235.522 163.562C237.821 171.908 251.277 198.051 260.501 203.951C269.498 209.71 285.531 210.469 285.531 210.469L281.373 231.754Z" fill="white" stroke="#1A1A1A" stroke-width="2" stroke-linecap="round" stroke-linejoin="round"/>
<path d="M353.861 197.601C318.504 193.238 307.172 211.266 277.607 208.023C272.557 223.658 273.742 228.646 281.799 238.138C305.961 242.233 310.762 239.169 310.762 239.169L353.861 197.601Z" fill="#FFC24C"/>
<path d="M302.467 240.64C298.034 240.64 291.439 240.144 281.74 238.499C281.654 238.486 281.575 238.442 281.517 238.376C273.601 229.048 272.082 223.918 277.255 207.904C277.281 207.823 277.335 207.754 277.407 207.708C277.478 207.662 277.564 207.642 277.648 207.651C291.576 209.177 301.368 205.98 311.735 202.596C323.279 198.825 335.221 194.924 353.906 197.232C354.004 197.244 354.094 197.295 354.155 197.373C354.217 197.451 354.244 197.55 354.233 197.649C354.221 197.748 354.17 197.838 354.092 197.899C354.014 197.961 353.915 197.988 353.817 197.977C335.295 195.691 323.435 199.566 311.965 203.311C301.594 206.691 291.799 209.907 277.867 208.418C272.895 223.922 274.291 228.683 281.996 237.784C305.449 241.745 310.51 238.875 310.558 238.845C310.642 238.794 310.742 238.779 310.838 238.802C310.933 238.825 311.015 238.885 311.067 238.968C311.118 239.051 311.134 239.149 311.113 239.244C311.093 239.338 311.036 239.421 310.955 239.474C310.833 239.556 309.021 240.64 302.467 240.64Z" fill="black"/>
<path d="M60.672 275.999C60.672 275.999 44.6014 266.812 30.573 270.211C21.6205 290.178 14.053 302.201 15.9764 320.464C22.4262 320.691 41.2261 321.033 45.849 323.3C42.9044 313.655 51.6193 279.29 60.672 275.999Z" fill="#1C0311" stroke="#1A1A1A" stroke-linecap="round" stroke-linejoin="round"/>
<path d="M318.441 494.455H-293.629C-293.629 494.455 -225.611 552.104 -5.4857 551.036C110.44 551.036 144.854 522.745 144.854 522.745C144.854 522.745 197.113 556.307 267.689 551.036C304.977 548.259 317.034 532.614 320.112 518.472C328.174 519.603 336.308 520.148 344.448 520.102C404.973 520.102 410.149 494.417 410.149 494.417L318.441 494.455Z" fill="white" stroke="#1A1A1A" stroke-width="2" stroke-linecap="round" stroke-linejoin="round"/>
<path d="M-92.1588 376.174C-92.1588 376.174 -66.653 326.394 -28.7599 341.644C9.13309 356.895 -33.5871 461.507 -33.5871 461.507H-37.0849V454.159C-37.0849 454.159 -6.22835 363.514 -32.7108 346.521C-54.3104 334.724 -81.8659 366.953 -83.017 379.327C-87.3205 379.055 -92.1588 376.174 -92.1588 376.174Z" fill="white" stroke="#1A1A1A" stroke-width="2" stroke-linecap="round" stroke-linejoin="round"/>
<path d="M-52.6208 388.261C-52.6208 388.261 -48.8557 356.895 -22.4438 359.2C3.96806 361.504 10.2805 470.56 -39.6693 479.193L-37.9463 473.724C-37.9463 473.724 -3.78508 456.035 -10.3871 393.949C-14.9803 372.731 -24.2521 363.827 -37.0849 370.996C-49.9176 378.166 -47.7083 396.03 -47.7083 396.03L-52.6208 388.261Z" fill="white" stroke="#1A1A1A" stroke-width="2" stroke-linecap="round" stroke-linejoin="round"/>
<path d="M208.939 439.846L186.917 447.12C186.917 447.12 187.173 448.825 187.618 452.089C195.639 452.019 203.177 449.45 210.38 446.204C209.507 442.344 208.939 439.846 208.939 439.846Z" fill="#1C0311" stroke="#1A1A1A" stroke-linecap="round" stroke-linejoin="round"/>
<path d="M187.618 452.089C188.172 456.136 189.011 462.579 190.01 471.167C196.66 475.202 207.332 473.445 215.293 469.749C213.711 461.392 211.71 452.167 210.38 446.204C203.195 449.45 195.639 452.019 187.618 452.089Z" fill="#99C3C9" stroke="black" stroke-width="2" stroke-linecap="round" stroke-linejoin="round"/>
<path d="M190.01 471.167C190.012 471.203 190.012 471.239 190.01 471.275C177.652 470.825 157.334 480.134 154.159 489.392C173.839 500.381 197.796 492.325 217.483 483.358C217.09 479.833 216.266 474.96 215.278 469.749C207.332 473.456 196.66 475.202 190.01 471.167Z" fill="white" stroke="#1A1A1A" stroke-width="2" stroke-linecap="round" stroke-linejoin="round"/>
<path d="M154.181 489.392C153.68 490.745 153.623 492.222 154.018 493.61C161.789 508.674 217.654 494.555 217.754 487.118C217.746 485.861 217.663 484.605 217.506 483.358C197.811 492.325 173.861 500.381 154.181 489.392Z" fill="#1C0311" stroke="#1A1A1A" stroke-linecap="round" stroke-linejoin="round"/>
<path d="M386.3 436.477C386.3 436.63 386.3 436.783 386.3 436.935C386.239 452.069 380.192 466.56 369.486 477.229C358.779 487.898 344.288 493.872 329.192 493.842C314.096 493.812 299.629 487.779 288.965 477.067C278.302 466.355 272.313 451.84 272.313 436.706C272.313 421.573 278.302 407.058 288.965 396.346C299.629 385.634 314.096 379.601 329.192 379.571C344.288 379.54 358.779 385.515 369.486 396.184C380.192 406.853 386.239 421.344 386.3 436.477V436.477Z" fill="#1C0311" stroke="#1A1A1A" stroke-linecap="round" stroke-linejoin="round"/>
<path d="M386.3 436.477C386.3 436.63 386.3 436.783 386.3 436.935C383.167 447.635 377.326 457.34 369.344 465.107C361.363 472.874 351.513 478.438 340.751 481.259C329.99 484.08 318.683 484.062 307.931 481.206C297.179 478.35 287.346 472.754 279.39 464.962C275.037 457.331 272.492 448.799 271.95 440.026C271.408 431.253 272.885 422.472 276.265 414.361C279.646 406.25 284.841 399.027 291.448 393.248C298.055 387.469 305.898 383.29 314.373 381.032C322.847 378.774 331.725 378.499 340.322 380.227C348.92 381.955 357.006 385.64 363.957 390.998C370.908 396.356 376.538 403.244 380.413 411.129C384.287 419.015 386.303 427.687 386.303 436.477H386.3Z" fill="white" stroke="#1A1A1A" stroke-width="2" stroke-linecap="round" stroke-linejoin="round"/>
<path d="M285.999 398.713C285.999 398.713 342.068 413.231 370.905 397.332L363.296 390.073L289.775 393.796L285.999 398.713Z" fill="#1C0311" stroke="#1A1A1A" stroke-linecap="round" stroke-linejoin="round"/>
<path d="M219.114 226.874L210.217 236.221L229.522 283.548L266.873 303.404L272.702 293.014L262.513 233.451L219.114 226.874Z" fill="#1C0311" stroke="#1A1A1A" stroke-linecap="round" stroke-linejoin="round"/>
<path d="M210.217 236.221L223.692 293.938L266.873 303.404L256.684 243.841L210.217 236.221Z" fill="#FFC24C" stroke="black" stroke-width="2" stroke-linecap="round" stroke-linejoin="round"/>
<path d="M221.015 228.865L215.831 234.967L258.67 242.196L267.998 300.895L271.235 294.92L261.002 235.313L221.015 228.865Z" fill="white" stroke="#1A1A1A" stroke-width="2" stroke-linecap="round" stroke-linejoin="round"/>
<path d="M379.571 176.338C379.571 176.338 372.145 208.891 396.154 205.946C420.164 203.002 390.781 169.932 379.571 176.338Z" fill="#1C0311" stroke="#1A1A1A" stroke-linecap="round" stroke-linejoin="round"/>
<path d="M111.621 466.968L109.682 469.202C109.682 469.202 70.2037 456.858 59.7845 473.639C59.148 474.634 58.7501 475.765 58.6223 476.94C62.2649 473.27 123.391 498.903 124.554 501.028C127.873 496.007 130.25 486.28 134.809 478.858C124.368 477.893 117.283 476.933 111.621 466.968Z" fill="white" stroke="#1A1A1A" stroke-width="2" stroke-linecap="round" stroke-linejoin="round"/>
<path d="M111.208 467.392C117.406 478.295 122.972 478.5 134.39 479.561C141.192 468.487 149.439 456.538 154.586 449.837C146.161 448.348 138.144 444.146 130.391 438.636L111.208 467.392Z" fill="#99C3C9" stroke="black" stroke-width="2" stroke-linecap="round" stroke-linejoin="round"/>
<path d="M134.772 433.072L130.391 438.655C138.144 444.164 146.161 448.334 154.586 449.856C157.928 445.49 160.156 442.806 160.156 442.806L134.772 433.072Z" fill="#1C0311" stroke="#1A1A1A" stroke-linecap="round" stroke-linejoin="round"/>
<path d="M306.964 312.583C306.964 312.583 204.235 287.032 174.258 323.814C160.519 340.658 174.63 446.681 182.253 447.105C191.213 447.604 213.302 443.625 211.958 443.815C211.958 443.815 206.429 354.476 203.667 339.586C239.584 363.834 326.655 401.926 346.349 361.411C353.913 339.593 344.274 308.18 344.274 308.18L306.964 312.583Z" fill="white"/>
<path d="M183.953 447.533C183.341 447.533 182.762 447.533 182.231 447.492C181.317 447.44 180.445 446.398 179.483 444.209C175.554 435.275 171.11 408.995 169.142 383.079C168.028 368.349 166.256 333.064 173.969 323.594C180.86 315.129 192.163 309.274 207.562 306.184C219.845 303.716 234.753 302.994 251.871 304.036C280.997 305.805 306.793 312.155 307.049 312.226C307.145 312.25 307.227 312.31 307.278 312.395C307.328 312.479 307.344 312.581 307.32 312.676C307.297 312.772 307.236 312.854 307.152 312.905C307.067 312.956 306.966 312.972 306.871 312.948C306.615 312.885 280.879 306.545 251.816 304.781C234.761 303.746 219.923 304.465 207.703 306.918C192.479 309.974 181.339 315.744 174.544 324.067C169.227 330.589 167.53 352.078 169.877 383.027C171.841 408.872 176.26 435.044 180.159 443.911C181.273 446.431 182.015 446.737 182.268 446.751C190.166 447.191 208.724 444.075 211.568 443.539C211.197 437.676 205.947 353.921 203.303 339.683C203.291 339.612 203.299 339.539 203.328 339.473C203.356 339.407 203.403 339.35 203.463 339.31C203.524 339.27 203.595 339.248 203.669 339.248C203.742 339.248 203.814 339.27 203.875 339.31C216.499 347.824 238.641 360.033 262.959 368.766C281.309 375.355 307.146 382.148 325.972 377.075C335.399 374.532 342.139 369.224 346 361.291C353.427 339.839 344.014 308.615 343.917 308.302C343.892 308.209 343.903 308.11 343.95 308.025C343.996 307.94 344.074 307.876 344.166 307.848C344.258 307.819 344.358 307.828 344.444 307.872C344.53 307.916 344.595 307.991 344.627 308.083C344.723 308.399 354.21 339.876 346.695 361.559C346.695 361.559 346.695 361.586 346.695 361.6C342.737 369.745 335.834 375.191 326.179 377.793C307.161 382.915 281.176 376.092 262.725 369.466C238.797 360.875 216.964 348.925 204.194 340.412C206.912 357.033 212.04 438.942 212.33 443.628C212.369 443.686 212.392 443.753 212.395 443.823C212.399 443.893 212.382 443.962 212.348 444.023C212.304 444.097 212.278 444.146 212.047 444.209C211.676 444.306 210.822 444.447 208.654 444.805C206.775 445.117 203.826 445.586 200.451 446.052C195.316 446.748 188.588 447.533 183.953 447.533Z" fill="#1A1A1A"/>
<path d="M375.282 308.18C375.282 308.18 404.817 370.516 372.951 389.995C326.621 418.312 213.863 378.567 213.863 378.567L161.006 447.135C161.006 447.135 130.432 438.305 130.929 433.109C172.888 364.541 169.795 340.129 212.289 333.894C254.782 327.659 279.007 325.828 279.007 325.828L375.282 308.18Z" fill="white"/>
<path d="M161.006 447.492C160.972 447.498 160.936 447.498 160.902 447.492C157.742 446.58 130.045 438.421 130.58 433.072C130.584 433.016 130.602 432.962 130.632 432.915C142.667 413.253 151.032 397.15 157.757 384.211C166.119 368.111 172.164 356.478 179.869 348.416C187.767 340.152 197.451 335.696 212.252 333.526C254.274 327.361 278.755 325.478 279 325.459C279.098 325.452 279.195 325.484 279.269 325.548C279.343 325.612 279.389 325.704 279.397 325.802C279.404 325.9 279.372 325.997 279.308 326.072C279.244 326.146 279.153 326.192 279.056 326.2C278.81 326.2 254.352 328.102 212.359 334.263C182.245 338.681 175.268 352.108 158.414 384.557C151.697 397.489 143.335 413.592 131.308 433.224C131.219 436.801 148.782 443.2 160.857 446.707L213.559 378.34C213.607 378.278 213.673 378.233 213.749 378.211C213.824 378.188 213.904 378.191 213.978 378.218C234.3 385.05 255.058 390.504 276.111 394.541C295.813 398.263 313.454 400.013 328.545 399.785C347.374 399.506 362.246 396.104 372.754 389.683C389.033 379.733 388.78 358.191 385.706 341.868C382.364 324.104 375.019 308.5 374.937 308.343C374.898 308.254 374.894 308.153 374.928 308.062C374.962 307.971 375.03 307.896 375.118 307.855C375.207 307.813 375.307 307.808 375.399 307.84C375.491 307.873 375.566 307.94 375.609 308.027C375.684 308.183 383.054 323.859 386.422 341.719C388.405 352.227 388.65 361.448 387.117 369.072C385.201 378.668 380.496 385.823 373.136 390.316C362.509 396.811 347.515 400.247 328.545 400.53C313.402 400.761 295.709 398.989 275.955 395.27C254.961 391.239 234.258 385.807 213.986 379.01L161.299 447.347C161.265 447.392 161.22 447.429 161.169 447.454C161.119 447.479 161.063 447.492 161.006 447.492V447.492Z" fill="#1A1A1A"/>
<path d="M297.551 311.53C297.551 311.53 292.144 312.047 294.848 319.578C297.551 327.108 323.201 331.787 348.336 328.411C373.471 325.035 379.787 319.258 379.787 319.258L376.835 310.413L297.551 311.53Z" fill="#1C0311" stroke="#1A1A1A" stroke-linecap="round" stroke-linejoin="round"/>
<path d="M124.554 501.032C123.737 502.272 122.979 503.385 122.326 504.349C113.481 510.361 56.3202 487.568 58.6335 476.944C62.265 473.274 123.391 498.922 124.554 501.032Z" fill="#1C0311" stroke="#1A1A1A" stroke-linecap="round" stroke-linejoin="round"/>
<path d="M316.974 218.591C311.757 224.175 311.843 228.013 309.385 237.434C302.456 263.968 289.516 306.821 297.291 316.723C314 338.019 379.946 315.163 379.946 315.163C390.224 283.496 390.057 227.63 386.556 213.868C383.054 200.106 358.959 196.744 358.959 196.744L316.974 218.591Z" fill="#FFC24C"/>
<path d="M324.438 326.185C321.881 326.185 319.472 326.073 317.212 325.85C307.673 324.897 300.874 321.908 297.001 316.968C290.05 308.101 299.058 274.532 306.284 247.585C307.253 243.964 308.171 240.546 309.01 237.341C309.504 235.447 309.897 233.764 310.246 232.279C311.672 226.215 312.474 222.872 316.689 218.334C316.756 218.262 316.849 218.22 316.948 218.217C317.046 218.214 317.142 218.25 317.214 218.318C317.286 218.385 317.328 218.479 317.331 218.578C317.334 218.676 317.298 218.772 317.231 218.844C313.146 223.237 312.363 226.509 310.97 232.45C310.621 233.939 310.228 235.629 309.726 237.527C308.891 240.736 307.974 244.157 307.001 247.779C300.184 273.166 290.849 307.934 297.569 316.507C306.08 327.365 327.951 326.345 344.794 323.579C362.116 320.735 377.815 315.505 379.635 314.887C385.672 296.167 387.488 271.104 388.034 257.804C388.795 239.27 388.034 221.245 386.177 213.975C382.776 200.608 359.127 197.146 358.889 197.113C358.791 197.099 358.703 197.047 358.644 196.968C358.585 196.889 358.56 196.79 358.573 196.692C358.587 196.595 358.639 196.508 358.716 196.448C358.794 196.389 358.892 196.363 358.989 196.376C359.984 196.513 383.374 199.946 386.897 213.793C388.754 221.123 389.534 239.236 388.754 257.833C388.205 271.212 386.37 296.472 380.262 315.293C380.244 315.348 380.214 315.399 380.173 315.44C380.133 315.481 380.083 315.513 380.028 315.531C379.865 315.587 363.296 321.29 344.901 324.313C337.341 325.56 330.476 326.185 324.438 326.185Z" fill="black"/>
<path d="M347.385 208.288V187.572C347.385 187.572 334.79 187.654 331.835 180.261C325.972 165.58 333.275 139.873 350.571 137.01C371.491 133.548 378.684 148.178 372.034 172.779C365.383 197.381 369.148 194.794 369.839 202.782C351.184 212.848 347.385 208.288 347.385 208.288Z" fill="white" stroke="#1A1A1A" stroke-width="2" stroke-linecap="round" stroke-linejoin="round"/>
<path d="M329.072 258.906C329.072 258.906 310.072 276.911 273.107 273.103C258.343 271.581 248.522 270.925 241.99 269.753V269.664C239.391 268.867 236.339 268.067 232.789 260.588C229.239 253.11 223.135 252.525 226.269 258.336C229.403 264.147 226.198 266.47 219.585 260.223C212.972 253.977 210.172 253.631 213.644 269.824C216.715 284.121 232.035 283.578 237.872 284.058C238.658 284.132 239.439 284.249 240.212 284.408C273.519 292.341 297.176 302.097 346.65 275.538C342.892 262.368 329.072 258.906 329.072 258.906Z" fill="white" stroke="#1A1A1A" stroke-width="2" stroke-linecap="round" stroke-linejoin="round"/>
<path d="M380.489 251.42C374.384 262.587 362.895 273.01 345.659 280.031C331.838 276.565 321.475 260.707 321.475 260.707C321.475 260.707 330.457 255.444 342.893 239.166L380.489 251.42Z" fill="#FFC24C"/>
<path d="M345.659 280.403C345.628 280.407 345.597 280.407 345.566 280.403C331.768 276.944 321.267 261.083 321.163 260.923C321.136 260.88 321.117 260.833 321.109 260.783C321.101 260.733 321.103 260.682 321.115 260.633C321.126 260.584 321.147 260.538 321.176 260.498C321.206 260.458 321.243 260.424 321.286 260.398C321.375 260.346 330.361 254.967 342.599 238.949C342.629 238.911 342.666 238.878 342.708 238.853C342.751 238.829 342.797 238.813 342.846 238.807C342.894 238.8 342.943 238.804 342.991 238.816C343.038 238.829 343.082 238.851 343.121 238.881C343.16 238.91 343.192 238.948 343.217 238.99C343.241 239.032 343.257 239.079 343.263 239.128C343.27 239.176 343.266 239.226 343.254 239.273C343.241 239.32 343.219 239.365 343.19 239.404C332.18 253.809 323.751 259.691 321.998 260.83C323.539 263.063 333.238 276.464 345.629 279.651C365.84 271.405 375.565 259.661 380.162 251.252C380.186 251.209 380.219 251.172 380.257 251.142C380.296 251.111 380.341 251.089 380.388 251.076C380.436 251.063 380.485 251.06 380.534 251.066C380.583 251.072 380.63 251.088 380.672 251.113C380.715 251.137 380.752 251.17 380.783 251.209C380.813 251.247 380.835 251.292 380.848 251.34C380.861 251.387 380.864 251.437 380.858 251.486C380.852 251.534 380.836 251.582 380.812 251.624C376.144 260.156 366.278 272.072 345.793 280.399C345.749 280.408 345.703 280.409 345.659 280.403Z" fill="black"/>
<path d="M332.529 144.973C332.529 144.973 337.356 153.285 354.986 144.973C352.911 165.405 357.147 180.045 369.713 182.074C369.713 182.074 386.459 188.704 389.567 171.908C392.675 155.112 382.794 130.589 366.386 128.177C358.44 127.138 356.732 130.783 356.732 130.783C356.732 130.783 350.341 120.732 344.107 126.971C337.872 133.21 329.328 139.642 332.529 144.973Z" fill="#1C0311" stroke="#1A1A1A" stroke-linecap="round" stroke-linejoin="round"/>
<path d="M347.385 193.107C338.229 193.107 338.923 198.546 338.923 198.546C338.923 198.546 336.695 216.309 346.695 216.656C356.694 217.002 374.544 204.621 374.432 201.461C374.321 198.3 370.088 194.678 368.239 194.671C365.35 199.689 350.493 207.327 347.385 204.55V193.107Z" fill="white" stroke="#1A1A1A" stroke-width="2" stroke-linecap="round" stroke-linejoin="round"/>
<path d="M353.861 187.133C353.861 187.133 349.034 187.185 347.044 187.55C347.385 193.108 347.686 193.238 347.686 193.238C347.686 193.238 353.601 189.039 353.861 187.133Z" fill="#1C0311" stroke="#1A1A1A" stroke-linecap="round" stroke-linejoin="round"/>
<path d="M26.8376 265.226C26.8376 265.226 7.82978 288.023 12.241 317.285C26.158 317.285 41.5158 319.585 41.5158 319.585C41.5158 319.585 41.3227 276.405 60.6721 271.35C52.8633 266.295 26.8376 265.226 26.8376 265.226Z" fill="white" stroke="black" stroke-width="2" stroke-linecap="round" stroke-linejoin="round"/>
<path d="M35.3184 301.2C35.1864 301.2 35.0589 301.153 34.9578 301.068C34.8567 300.983 34.7885 300.865 34.7651 300.735L31.932 281.639L20.7924 299.182C20.7112 299.303 20.5863 299.387 20.4443 299.416C20.3023 299.446 20.1544 299.419 20.032 299.341C19.9096 299.263 19.8225 299.14 19.7891 298.998C19.7556 298.857 19.7785 298.708 19.853 298.583L31.7946 279.777C31.8532 279.676 31.9424 279.597 32.0492 279.55C32.156 279.503 32.2749 279.491 32.3887 279.517C32.4999 279.54 32.6016 279.596 32.6799 279.679C32.7582 279.761 32.8095 279.866 32.8268 279.978L35.8791 300.556C35.8901 300.628 35.8867 300.702 35.8692 300.773C35.8516 300.844 35.8202 300.911 35.7767 300.97C35.7332 301.029 35.6785 301.079 35.6157 301.116C35.553 301.154 35.4835 301.178 35.4112 301.189L35.3184 301.2Z" fill="#1A1A1A"/>
<path d="M34.0039 292.333H33.9334L25.4191 291.302C25.2713 291.284 25.1367 291.208 25.0448 291.091C24.9529 290.974 24.9112 290.825 24.9289 290.677C24.9467 290.528 25.0223 290.393 25.1393 290.301C25.2563 290.209 25.405 290.167 25.5528 290.185L34.0671 291.22C34.1402 291.224 34.2118 291.243 34.2778 291.275C34.3438 291.307 34.4029 291.351 34.4517 291.406C34.5005 291.461 34.538 291.525 34.5622 291.594C34.5863 291.663 34.5966 291.737 34.5925 291.81C34.5883 291.883 34.5698 291.955 34.538 292.021C34.5062 292.087 34.4617 292.147 34.407 292.196C34.3524 292.244 34.2887 292.282 34.2195 292.306C34.1503 292.331 34.0771 292.341 34.0039 292.337V292.333Z" fill="#1A1A1A"/>
<path d="M180.916 174.882C180.916 175.999 180.879 177.094 180.812 178.184C179.727 178.43 178.589 178.24 177.641 177.656C173.642 175.128 175.591 167.627 171.421 165.372C169.491 164.333 166.862 164.91 165.206 163.469C163.2 161.712 164.092 158.515 164.132 155.846C164.166 153.847 163.625 151.881 162.574 150.182C161.524 148.483 160.008 147.122 158.208 146.263C156.408 145.403 154.399 145.08 152.421 145.334C150.443 145.587 148.579 146.405 147.052 147.69C144.59 149.767 143.045 153.013 140.093 154.297C136.959 155.663 133.142 154.238 130.859 151.692C128.575 149.145 127.517 145.736 126.871 142.385C126.225 139.035 125.842 135.573 124.609 132.38C123.563 129.708 121.935 127.303 119.845 125.34C127.209 123.773 134.829 123.874 142.149 125.636C149.47 127.397 156.305 130.775 162.157 135.522C168.009 140.269 172.73 146.267 175.975 153.076C179.221 159.886 180.909 167.336 180.916 174.882Z" fill="#99C3C9" stroke="black" stroke-width="2" stroke-linecap="round" stroke-linejoin="round"/>
<path d="M159.951 207.301C158.154 205.883 155.362 206.575 153.732 208.187C152.102 209.799 151.329 212.062 150.579 214.236C149.829 216.41 148.983 218.658 147.238 220.159C143.662 223.256 137.988 221.904 133.785 224.078C133.04 224.474 132.343 224.955 131.709 225.511C131.267 225.511 130.825 225.53 130.383 225.53C121.722 225.527 113.207 223.292 105.655 219.041C98.1033 214.789 91.768 208.663 87.2573 201.251C82.7465 193.838 80.2116 185.388 79.8958 176.711C79.58 168.034 81.4939 159.421 85.4538 151.699C89.141 152.252 92.4696 154.219 94.7368 157.186C96.5154 159.565 97.5254 162.475 99.46 164.728C102.163 167.877 106.682 169.838 107.562 173.9C108.427 177.886 105.264 181.471 102.776 184.695C100.333 187.87 98.32 191.485 97.6405 195.445C96.961 199.406 97.8299 203.743 100.529 206.709C103.229 209.676 107.907 210.897 111.442 209.014C113.912 207.707 115.527 205.187 117.796 203.582C121.88 200.69 128.118 201.435 131.427 205.209C132.949 206.944 133.844 209.133 135.084 211.079C136.324 213.026 138.14 214.85 140.428 215.111C143.142 215.42 145.581 213.466 147.334 211.362C149.087 209.259 150.602 206.817 152.997 205.511C155.392 204.204 159.064 204.722 159.951 207.301Z" fill="#99C3C9" stroke="black" stroke-width="2" stroke-linecap="round" stroke-linejoin="round"/>
<path d="M180.816 178.184C179.994 190.791 174.502 202.636 165.419 211.393C156.335 220.15 144.315 225.188 131.716 225.519C132.351 224.963 133.047 224.482 133.792 224.086C137.995 221.912 143.669 223.263 147.245 220.166C148.983 218.677 149.844 216.41 150.587 214.244C151.329 212.077 152.105 209.807 153.739 208.195C155.373 206.583 158.162 205.891 159.959 207.309C159.071 204.722 155.388 204.215 152.993 205.526C150.598 206.836 149.083 209.278 147.33 211.377C145.578 213.477 143.138 215.435 140.424 215.126C138.136 214.865 136.339 213.038 135.08 211.095C133.822 209.151 132.945 206.959 131.423 205.224C128.115 201.45 121.891 200.705 117.792 203.597C115.508 205.202 113.908 207.722 111.439 209.029C107.904 210.912 103.218 209.691 100.526 206.724C97.8335 203.758 96.9758 199.417 97.6367 195.46C98.2977 191.503 100.329 187.885 102.772 184.71C105.26 181.479 108.424 177.894 107.558 173.915C106.678 169.853 102.159 167.892 99.4562 164.743C97.5216 162.49 96.5116 159.58 94.733 157.201C92.4658 154.234 89.1372 152.267 85.4501 151.714C88.6425 145.5 93.0794 140.013 98.4833 135.596C99.2631 136.214 99.924 136.981 100.648 137.669C103.363 140.241 106.939 141.702 110.674 141.764C112.812 141.797 115.233 141.161 116.243 139.262C117.098 137.639 116.615 135.626 115.776 133.991C114.936 132.357 113.77 130.898 113.176 129.152C112.976 128.576 112.867 127.972 112.853 127.362C115.144 126.51 117.493 125.827 119.882 125.318C121.972 127.281 123.6 129.685 124.646 132.357C125.879 135.551 126.243 139.006 126.908 142.363C127.572 145.721 128.608 149.146 130.896 151.669C133.183 154.193 136.996 155.645 140.13 154.275C143.101 152.991 144.627 149.745 147.089 147.668C148.616 146.382 150.48 145.564 152.458 145.311C154.436 145.058 156.445 145.381 158.245 146.24C160.045 147.1 161.561 148.46 162.611 150.16C163.662 151.859 164.203 153.825 164.17 155.824C164.121 158.493 163.238 161.69 165.243 163.447C166.899 164.888 169.528 164.311 171.459 165.349C175.628 167.583 173.686 175.091 177.678 177.633C178.614 178.217 179.738 178.414 180.816 178.184V178.184Z" fill="white" stroke="#1A1A1A" stroke-width="2" stroke-linecap="round" stroke-linejoin="round"/>
<path d="M83.3002 193.67C83.2267 193.669 83.1551 193.647 83.0942 193.606C83.0333 193.565 82.9859 193.507 82.9581 193.438C82.9303 193.37 82.9232 193.295 82.9379 193.223C82.9525 193.151 82.9881 193.085 83.0403 193.033L148.392 128.262C148.462 128.193 148.557 128.154 148.655 128.154C148.754 128.155 148.848 128.194 148.918 128.264C148.987 128.334 149.026 128.429 149.026 128.528C149.025 128.627 148.986 128.721 148.916 128.791L83.5638 193.562C83.5291 193.596 83.488 193.623 83.4427 193.642C83.3975 193.661 83.349 193.67 83.3002 193.67Z" fill="#1A1A1A"/>
<path d="M123.752 225.474C123.655 225.475 123.561 225.437 123.492 225.37C123.422 225.3 123.384 225.206 123.384 225.108C123.384 225.009 123.422 224.915 123.492 224.845L179.932 166.083C179.966 166.047 180.006 166.019 180.051 166C180.096 165.98 180.144 165.97 180.193 165.969C180.242 165.968 180.29 165.977 180.335 165.995C180.381 166.013 180.422 166.039 180.457 166.073C180.493 166.107 180.521 166.148 180.54 166.193C180.56 166.238 180.57 166.286 180.571 166.335C180.572 166.384 180.563 166.432 180.545 166.478C180.527 166.523 180.501 166.565 180.467 166.6L124.026 225.363C123.991 225.399 123.948 225.428 123.901 225.447C123.853 225.466 123.803 225.476 123.752 225.474Z" fill="#1A1A1A"/>
<path d="M167.274 209.877C167.182 209.877 167.093 209.842 167.025 209.78L92.65 141.194C92.6137 141.161 92.5843 141.121 92.5635 141.077C92.5427 141.032 92.531 140.984 92.5289 140.935C92.5268 140.885 92.5345 140.836 92.5514 140.79C92.5684 140.744 92.5943 140.702 92.6277 140.666C92.6973 140.596 92.7914 140.557 92.8895 140.557C92.9876 140.557 93.0817 140.596 93.1513 140.666L167.526 209.252C167.598 209.318 167.641 209.411 167.646 209.51C167.65 209.608 167.615 209.704 167.549 209.777C167.512 209.811 167.469 209.838 167.422 209.855C167.374 209.872 167.324 209.88 167.274 209.877Z" fill="#1A1A1A"/>
<path d="M165.759 211.429C143.569 210.29 125.954 203.3 113.403 190.658C101.521 178.709 94.5214 162.118 92.5572 141.339C92.5528 141.29 92.558 141.241 92.5726 141.194C92.5872 141.148 92.6109 141.104 92.6423 141.066C92.6737 141.029 92.7121 140.998 92.7555 140.975C92.7989 140.952 92.8463 140.938 92.895 140.934C92.9438 140.929 92.9929 140.935 93.0397 140.949C93.0864 140.964 93.1298 140.988 93.1674 141.019C93.205 141.05 93.236 141.089 93.2587 141.132C93.2815 141.176 93.2954 141.223 93.2998 141.272C97.3286 183.839 123.08 208.489 165.807 210.685C165.906 210.685 166 210.724 166.07 210.794C166.139 210.864 166.178 210.958 166.178 211.057C166.178 211.156 166.139 211.251 166.07 211.32C166 211.39 165.906 211.429 165.807 211.429H165.759Z" fill="#1A1A1A"/>
<path d="M137.769 217.817C135.343 217.819 132.919 217.661 130.513 217.344C120.272 215.982 111.027 211.631 103.778 204.755C96.2147 197.586 91.1053 188.026 89.0036 177.109C86.8092 165.707 88.0382 153.285 92.5609 141.176C92.5759 141.127 92.6006 141.083 92.6334 141.044C92.6663 141.006 92.7067 140.974 92.752 140.952C92.7974 140.93 92.8469 140.917 92.8974 140.914C92.9479 140.912 92.9983 140.92 93.0457 140.937C93.093 140.955 93.1363 140.982 93.1727 141.018C93.2092 141.053 93.2381 141.095 93.2577 141.142C93.2773 141.188 93.2872 141.239 93.2868 141.289C93.2864 141.34 93.2757 141.39 93.2553 141.436C84.3436 165.26 88.5804 189.326 104.291 204.215C119.422 218.554 142.347 220.985 165.618 210.719C165.707 210.685 165.805 210.687 165.893 210.724C165.98 210.761 166.05 210.831 166.089 210.918C166.127 211.005 166.13 211.104 166.098 211.194C166.065 211.283 166 211.357 165.915 211.4C156.231 215.669 146.796 217.817 137.769 217.817Z" fill="#1A1A1A"/>
<path d="M168.622 208.559C168.526 208.56 168.435 208.523 168.365 208.457C168.296 208.391 168.255 208.301 168.25 208.206C166.212 168.335 141.018 145.821 93.3703 141.291C93.2718 141.282 93.1811 141.233 93.1181 141.157C93.0551 141.081 93.0249 140.982 93.0343 140.883C93.0436 140.785 93.0917 140.694 93.168 140.631C93.2442 140.567 93.3424 140.537 93.4409 140.547C115.427 142.635 132.916 148.684 145.425 158.53C159.966 169.973 167.898 186.675 168.997 208.165C168.999 208.215 168.992 208.266 168.974 208.313C168.956 208.36 168.929 208.404 168.895 208.44C168.86 208.477 168.818 208.506 168.772 208.526C168.726 208.546 168.676 208.556 168.625 208.556L168.622 208.559Z" fill="#1A1A1A"/>
<path d="M116.221 139.27C115.226 141.168 112.805 141.805 110.651 141.771C106.917 141.709 103.34 140.249 100.626 137.677C99.9018 136.988 99.2408 136.221 98.4611 135.603C102.758 132.092 107.603 129.315 112.801 127.384C112.815 127.994 112.924 128.598 113.124 129.175C113.715 130.913 114.888 132.376 115.724 134.014C116.559 135.652 117.075 137.647 116.221 139.27Z" fill="#99C3C9" stroke="black" stroke-width="2" stroke-linecap="round" stroke-linejoin="round"/>
<path d="M168.622 208.559C168.571 208.56 168.52 208.55 168.473 208.53C168.386 208.488 168.319 208.415 168.285 208.325C168.251 208.234 168.253 208.134 168.291 208.046C177.682 186.653 175.558 166.418 162.462 152.529C147 136.128 119.303 131.605 93.5448 141.276C93.499 141.293 93.4503 141.301 93.4013 141.3C93.3524 141.298 93.3043 141.287 93.2598 141.266C93.2153 141.246 93.1752 141.217 93.1419 141.181C93.1086 141.145 93.0828 141.103 93.0659 141.057C93.0322 140.964 93.0364 140.862 93.0774 140.773C93.1185 140.684 93.1931 140.614 93.2849 140.58C106.359 135.67 119.96 134.252 132.622 136.456C144.924 138.607 155.432 143.986 163.004 152.015C169.27 158.648 173.28 167.1 174.459 176.159C175.792 186.18 173.946 197.005 168.971 208.347C168.94 208.413 168.89 208.468 168.828 208.506C168.766 208.543 168.694 208.562 168.622 208.559Z" fill="#1A1A1A"/>
<path d="M105.323 474.123C105.262 474.123 105.202 474.108 105.149 474.079C105.095 474.051 105.049 474.009 105.015 473.959C104.855 473.817 102.757 472.347 84.2433 469.946C84.1667 469.936 84.0951 469.902 84.0386 469.85C83.982 469.797 83.9432 469.728 83.9276 469.652C83.3335 466.745 77.5781 465.207 77.5224 465.185C77.4751 465.173 77.4307 465.151 77.3916 465.122C77.3526 465.093 77.3197 465.056 77.2949 465.014C77.2701 464.971 77.2538 464.925 77.2469 464.876C77.2401 464.828 77.2429 464.778 77.2551 464.731C77.2673 464.684 77.2886 464.639 77.318 464.6C77.3474 464.561 77.3841 464.528 77.4262 464.503C77.4683 464.478 77.5148 464.462 77.5632 464.455C77.6115 464.448 77.6608 464.451 77.7081 464.463C77.9568 464.53 83.6492 466.056 84.5886 469.231C95.6205 470.668 102.987 472.083 105.078 473.136C105.286 472.049 105.602 469.488 104.302 468.074C104.243 468 104.214 467.907 104.221 467.812C104.228 467.718 104.27 467.63 104.34 467.566C104.409 467.502 104.5 467.467 104.595 467.468C104.689 467.469 104.78 467.506 104.848 467.571C106.801 469.693 105.728 473.672 105.679 473.844C105.658 473.92 105.612 473.988 105.55 474.037C105.487 474.086 105.41 474.113 105.33 474.115L105.323 474.123Z" fill="#1A1A1A"/>
<path d="M174.659 484.363C174.596 484.363 174.534 484.347 174.479 484.317C174.424 484.286 174.377 484.242 174.344 484.188C172.784 481.653 164.875 481.006 161.96 480.968C161.862 480.968 161.767 480.929 161.698 480.859C161.628 480.789 161.589 480.695 161.589 480.596C161.589 480.497 161.628 480.403 161.698 480.333C161.767 480.263 161.862 480.224 161.96 480.224C162.395 480.224 172.324 480.391 174.786 483.529C184.068 479.557 189.56 477.774 191.008 477.324C190.507 476.181 188.539 472.671 182.995 472.235C182.898 472.227 182.808 472.18 182.745 472.106C182.682 472.031 182.65 471.935 182.657 471.837C182.665 471.739 182.711 471.648 182.786 471.584C182.86 471.519 182.957 471.487 183.055 471.495C190.065 472.046 191.833 477.398 191.851 477.451C191.866 477.498 191.872 477.547 191.867 477.597C191.863 477.646 191.848 477.694 191.825 477.737C191.802 477.781 191.77 477.82 191.731 477.852C191.692 477.883 191.647 477.906 191.599 477.92C191.543 477.92 185.84 479.602 174.8 484.333C174.755 484.352 174.708 484.362 174.659 484.363Z" fill="#1A1A1A"/>
<path d="M172.658 150.72C172.658 150.72 151.664 112.036 169.543 109.274C199.853 104.595 172.658 150.72 172.658 150.72Z" fill="white" stroke="#1A1A1A" stroke-width="2" stroke-linecap="round" stroke-linejoin="round"/>
<path d="M173.096 125.754C176.422 125.754 179.119 123.05 179.119 119.716C179.119 116.381 176.422 113.678 173.096 113.678C169.77 113.678 167.073 116.381 167.073 119.716C167.073 123.05 169.77 125.754 173.096 125.754Z" fill="#1C0311" stroke="#1A1A1A" stroke-linecap="round" stroke-linejoin="round"/>
<path d="M342.748 362.095C335.039 362.095 329.818 357.692 326.673 353.694C324.245 350.559 322.362 347.035 321.104 343.271C321.089 343.224 321.084 343.175 321.089 343.126C321.094 343.077 321.108 343.03 321.131 342.986C321.155 342.943 321.186 342.905 321.224 342.874C321.262 342.843 321.305 342.82 321.352 342.806C321.399 342.791 321.449 342.787 321.498 342.792C321.547 342.797 321.594 342.812 321.637 342.835C321.68 342.859 321.718 342.891 321.749 342.929C321.78 342.967 321.803 343.011 321.816 343.059C323.044 346.74 324.881 350.187 327.253 353.255C332.34 359.706 338.741 362.33 346.272 361.049C346.37 361.033 346.471 361.057 346.552 361.115C346.633 361.173 346.688 361.262 346.704 361.36C346.72 361.459 346.697 361.56 346.639 361.641C346.581 361.723 346.493 361.778 346.394 361.794C345.189 361.998 343.969 362.098 342.748 362.095Z" fill="#1A1A1A"/>
</svg>
